# xmcd
#
# Track frame offsets: 
#        150
#        23722
#        46837
#        69947
#
# Disc length: 1166 seconds
#
# Revision: 0
# Processed by: cddbd v1.5.2PL0 Copyright (c) Steve Scherf et al.
# Submitted via: ExactAudioCopy v1.0b4
#
DISCID=26048c04
DTITLE=Larry Taylor and The Soul Blues Healers - The New Chicago Sound O
DTITLE=f Larry Taylor
DYEAR=2017
DGENRE=Blues
TTITLE0=Jump Down American Queen
TTITLE1=I Paid My Dues
TTITLE2=Penitentiary Blues
TTITLE3=She Treats Me Just The Same
EXTD=
EXTT0=
EXTT1=
EXTT2=
EXTT3=
PLAYORDER=
